# xmcd CD database file
#
# Track frame offsets:
#	150
#	18052
#	34029
#	61393
#	80900
#	103179
#	124775
#	143081
#	162977
#	182107
#	206549
#	222203
#	243984
#	263549
#	279765
#	300926
#	321589
#
# Disc length: 4599 seconds
#
# Revision: 4
# Processed by: cddbd v1.5.2PL0 Copyright (c) Steve Scherf et al.
# Submitted via: CDex 1.70beta2
#
DISCID=e911f511
DTITLE=Various Jazz Artists - Inspired  CD1 - 32 Uplifting Soulful Grooves (Jazz FM)
DYEAR=2001
DGENRE=Jazz
TTITLE0=Dennis Taylor - Enough Is Enough
TTITLE1=Angie Stone - Visions
TTITLE2=Darwin Hobbs Feat. Michael McDonald - Everyday
TTITLE3=Sounds Of Blackness - Try
TTITLE4=Bob Sinclair Feat. James "D-Train" Williams - Darlin'
TTITLE5=Beverley Knight - Flavour Of The Old School
TTITLE6=Driza - Confusion
TTITLE7=Hil St Soul - For Your Love
TTITLE8=Ledisi - Lovin'
TTITLE9=Dave McMurray - What Cha Gonna Do About My Loving
TTITLE10=Shaun Escoffery - Space Rider
TTITLE11=Omar Feat. Angie Stone - Be Thankful... (Dodge Mix)
TTITLE12=Chante Moore - Everything We Want
TTITLE13=Erykah Badu - ... and On
TTITLE14=Chico DeBarge - Give You What You Want (Fa Sure)
TTITLE15=Marc Dorsey - All I Do
TTITLE16=Rahsaan Patterson - Where You Are
EXTD=YEAR: 2001
EXTT0=
EXTT1=
EXTT2=
EXTT3=
EXTT4=
EXTT5=
EXTT6=
EXTT7=
EXTT8=
EXTT9=
EXTT10=
EXTT11=
EXTT12=
EXTT13=
EXTT14=
EXTT15=
EXTT16=
PLAYORDER=
